<mxfile host="app.diagrams.net" modified="2024-06-24T20:03:30.537Z" agent="Mozilla/5.0 (Windows NT 10.0; Win64; x64) AppleWebKit/537.36 (KHTML, like Gecko) Chrome/126.0.0.0 Safari/537.36" etag="tOeTKwVj0oC5qZnX5tsK" version="24.6.2" type="github">
  <diagram name="Страница — 1" id="6D_wEND17thWg54xiyXQ">
    <mxGraphModel dx="2074" dy="1132" grid="1" gridSize="10" guides="1" tooltips="1" connect="1" arrows="1" fold="1" page="1" pageScale="1" pageWidth="827" pageHeight="1169" math="0" shadow="0">
      <root>
        <mxCell id="0" />
        <mxCell id="1" parent="0" />
        <mxCell id="sTOlMVgeT1HYII_DFmIz-1" value="Сотрудник" style="shape=umlActor;html=1;verticalLabelPosition=bottom;verticalAlign=top;align=center;" vertex="1" parent="1">
          <mxGeometry x="50" y="265" width="30" height="60" as="geometry" />
        </mxCell>
        <mxCell id="sTOlMVgeT1HYII_DFmIz-2" value="" style="rounded=0;whiteSpace=wrap;html=1;fillColor=#dae8fc;strokeColor=#6c8ebf;align=right;" vertex="1" parent="1">
          <mxGeometry x="110" y="70" width="1240" height="1800" as="geometry" />
        </mxCell>
        <mxCell id="sTOlMVgeT1HYII_DFmIz-3" value="Просмотр профиля" style="ellipse;whiteSpace=wrap;html=1;" vertex="1" parent="1">
          <mxGeometry x="180" y="260" width="140" height="70" as="geometry" />
        </mxCell>
        <mxCell id="sTOlMVgeT1HYII_DFmIz-4" value="Руководитель" style="shape=umlActor;html=1;verticalLabelPosition=bottom;verticalAlign=top;align=center;" vertex="1" parent="1">
          <mxGeometry x="50" y="585" width="30" height="60" as="geometry" />
        </mxCell>
        <mxCell id="sTOlMVgeT1HYII_DFmIz-5" value="Администратор" style="shape=umlActor;html=1;verticalLabelPosition=bottom;verticalAlign=top;align=center;" vertex="1" parent="1">
          <mxGeometry x="50" y="735" width="30" height="60" as="geometry" />
        </mxCell>
        <mxCell id="sTOlMVgeT1HYII_DFmIz-7" value="Просмотр текущих проектов и задач" style="ellipse;whiteSpace=wrap;html=1;" vertex="1" parent="1">
          <mxGeometry x="430" y="300" width="140" height="70" as="geometry" />
        </mxCell>
        <mxCell id="sTOlMVgeT1HYII_DFmIz-8" value="Просмотр опыта работы и компетенций" style="ellipse;whiteSpace=wrap;html=1;" vertex="1" parent="1">
          <mxGeometry x="430" y="210" width="140" height="70" as="geometry" />
        </mxCell>
        <mxCell id="sTOlMVgeT1HYII_DFmIz-9" value="Просмотр информации о сотруднике" style="ellipse;whiteSpace=wrap;html=1;" vertex="1" parent="1">
          <mxGeometry x="430" y="110" width="140" height="70" as="geometry" />
        </mxCell>
        <mxCell id="sTOlMVgeT1HYII_DFmIz-10" value="&amp;lt;&amp;lt;include&amp;gt;&amp;gt;" style="edgeStyle=none;html=1;endArrow=open;verticalAlign=bottom;dashed=1;labelBackgroundColor=none;rounded=0;exitX=1;exitY=0.5;exitDx=0;exitDy=0;entryX=0;entryY=0.5;entryDx=0;entryDy=0;" edge="1" parent="1" source="sTOlMVgeT1HYII_DFmIz-3" target="sTOlMVgeT1HYII_DFmIz-9">
          <mxGeometry width="160" relative="1" as="geometry">
            <mxPoint x="330" y="580" as="sourcePoint" />
            <mxPoint x="490" y="580" as="targetPoint" />
          </mxGeometry>
        </mxCell>
        <mxCell id="sTOlMVgeT1HYII_DFmIz-12" value="&amp;lt;&amp;lt;include&amp;gt;&amp;gt;" style="edgeStyle=none;html=1;endArrow=open;verticalAlign=bottom;dashed=1;labelBackgroundColor=none;rounded=0;exitX=1;exitY=0.5;exitDx=0;exitDy=0;entryX=0;entryY=0.5;entryDx=0;entryDy=0;" edge="1" parent="1" source="sTOlMVgeT1HYII_DFmIz-3" target="sTOlMVgeT1HYII_DFmIz-8">
          <mxGeometry x="-0.0069" width="160" relative="1" as="geometry">
            <mxPoint x="350" y="195" as="sourcePoint" />
            <mxPoint x="497" y="160" as="targetPoint" />
            <mxPoint as="offset" />
          </mxGeometry>
        </mxCell>
        <mxCell id="sTOlMVgeT1HYII_DFmIz-13" value="&amp;lt;&amp;lt;include&amp;gt;&amp;gt;" style="edgeStyle=none;html=1;endArrow=open;verticalAlign=bottom;dashed=1;labelBackgroundColor=none;rounded=0;exitX=1;exitY=0.5;exitDx=0;exitDy=0;entryX=0;entryY=0.5;entryDx=0;entryDy=0;" edge="1" parent="1" source="sTOlMVgeT1HYII_DFmIz-3" target="sTOlMVgeT1HYII_DFmIz-7">
          <mxGeometry width="160" relative="1" as="geometry">
            <mxPoint x="340" y="185" as="sourcePoint" />
            <mxPoint x="490" y="225" as="targetPoint" />
          </mxGeometry>
        </mxCell>
        <mxCell id="sTOlMVgeT1HYII_DFmIz-15" value="Обновление личной информации" style="ellipse;whiteSpace=wrap;html=1;" vertex="1" parent="1">
          <mxGeometry x="180" y="540" width="140" height="70" as="geometry" />
        </mxCell>
        <mxCell id="sTOlMVgeT1HYII_DFmIz-16" value="Добавление или удаление связей с социальными сетями" style="ellipse;whiteSpace=wrap;html=1;" vertex="1" parent="1">
          <mxGeometry x="430" y="640" width="140" height="70" as="geometry" />
        </mxCell>
        <mxCell id="sTOlMVgeT1HYII_DFmIz-17" value="Обновление информации о компетенциях" style="ellipse;whiteSpace=wrap;html=1;" vertex="1" parent="1">
          <mxGeometry x="430" y="550" width="140" height="70" as="geometry" />
        </mxCell>
        <mxCell id="sTOlMVgeT1HYII_DFmIz-18" value="Изменение контактной информации" style="ellipse;whiteSpace=wrap;html=1;" vertex="1" parent="1">
          <mxGeometry x="430" y="470" width="140" height="70" as="geometry" />
        </mxCell>
        <mxCell id="sTOlMVgeT1HYII_DFmIz-19" value="&amp;lt;&amp;lt;include&amp;gt;&amp;gt;" style="edgeStyle=none;html=1;endArrow=open;verticalAlign=bottom;dashed=1;labelBackgroundColor=none;rounded=0;exitX=1;exitY=0.5;exitDx=0;exitDy=0;entryX=0;entryY=0.5;entryDx=0;entryDy=0;" edge="1" parent="1" source="sTOlMVgeT1HYII_DFmIz-15" target="sTOlMVgeT1HYII_DFmIz-18">
          <mxGeometry width="160" relative="1" as="geometry">
            <mxPoint x="340" y="185" as="sourcePoint" />
            <mxPoint x="500" y="425" as="targetPoint" />
          </mxGeometry>
        </mxCell>
        <mxCell id="sTOlMVgeT1HYII_DFmIz-20" value="&amp;lt;&amp;lt;include&amp;gt;&amp;gt;" style="edgeStyle=none;html=1;endArrow=open;verticalAlign=bottom;dashed=1;labelBackgroundColor=none;rounded=0;exitX=1;exitY=0.5;exitDx=0;exitDy=0;entryX=0;entryY=0.5;entryDx=0;entryDy=0;" edge="1" parent="1" source="sTOlMVgeT1HYII_DFmIz-15" target="sTOlMVgeT1HYII_DFmIz-16">
          <mxGeometry width="160" relative="1" as="geometry">
            <mxPoint x="330" y="515" as="sourcePoint" />
            <mxPoint x="450" y="515" as="targetPoint" />
          </mxGeometry>
        </mxCell>
        <mxCell id="sTOlMVgeT1HYII_DFmIz-21" value="&amp;lt;&amp;lt;include&amp;gt;&amp;gt;" style="edgeStyle=none;html=1;endArrow=open;verticalAlign=bottom;dashed=1;labelBackgroundColor=none;rounded=0;exitX=1;exitY=0.5;exitDx=0;exitDy=0;entryX=0;entryY=0.5;entryDx=0;entryDy=0;" edge="1" parent="1" source="sTOlMVgeT1HYII_DFmIz-15" target="sTOlMVgeT1HYII_DFmIz-17">
          <mxGeometry width="160" relative="1" as="geometry">
            <mxPoint x="340" y="525" as="sourcePoint" />
            <mxPoint x="460" y="525" as="targetPoint" />
          </mxGeometry>
        </mxCell>
        <mxCell id="sTOlMVgeT1HYII_DFmIz-22" value="Просмотр текущих задач" style="ellipse;whiteSpace=wrap;html=1;" vertex="1" parent="1">
          <mxGeometry x="160" y="830" width="140" height="70" as="geometry" />
        </mxCell>
        <mxCell id="sTOlMVgeT1HYII_DFmIz-23" value="Фильтрация задач по статусу и приоритету" style="ellipse;whiteSpace=wrap;html=1;" vertex="1" parent="1">
          <mxGeometry x="430" y="830" width="140" height="70" as="geometry" />
        </mxCell>
        <mxCell id="sTOlMVgeT1HYII_DFmIz-24" value="Просмотр списка задач" style="ellipse;whiteSpace=wrap;html=1;" vertex="1" parent="1">
          <mxGeometry x="430" y="735" width="140" height="70" as="geometry" />
        </mxCell>
        <mxCell id="sTOlMVgeT1HYII_DFmIz-25" value="&amp;lt;&amp;lt;include&amp;gt;&amp;gt;" style="edgeStyle=none;html=1;endArrow=open;verticalAlign=bottom;dashed=1;labelBackgroundColor=none;rounded=0;exitX=1;exitY=0.5;exitDx=0;exitDy=0;entryX=0;entryY=0.5;entryDx=0;entryDy=0;" edge="1" parent="1" source="sTOlMVgeT1HYII_DFmIz-22" target="sTOlMVgeT1HYII_DFmIz-24">
          <mxGeometry width="160" relative="1" as="geometry">
            <mxPoint x="330" y="515" as="sourcePoint" />
            <mxPoint x="450" y="685" as="targetPoint" />
          </mxGeometry>
        </mxCell>
        <mxCell id="sTOlMVgeT1HYII_DFmIz-26" value="&amp;lt;&amp;lt;include&amp;gt;&amp;gt;" style="edgeStyle=none;html=1;endArrow=open;verticalAlign=bottom;dashed=1;labelBackgroundColor=none;rounded=0;exitX=1;exitY=0.5;exitDx=0;exitDy=0;entryX=0;entryY=0.5;entryDx=0;entryDy=0;" edge="1" parent="1" source="sTOlMVgeT1HYII_DFmIz-22" target="sTOlMVgeT1HYII_DFmIz-23">
          <mxGeometry width="160" relative="1" as="geometry">
            <mxPoint x="340" y="525" as="sourcePoint" />
            <mxPoint x="460" y="695" as="targetPoint" />
          </mxGeometry>
        </mxCell>
        <mxCell id="sTOlMVgeT1HYII_DFmIz-27" value="Управление календарем встреч" style="ellipse;whiteSpace=wrap;html=1;" vertex="1" parent="1">
          <mxGeometry x="180" y="1250" width="140" height="70" as="geometry" />
        </mxCell>
        <mxCell id="sTOlMVgeT1HYII_DFmIz-28" value="Изменение времени встреч" style="ellipse;whiteSpace=wrap;html=1;" vertex="1" parent="1">
          <mxGeometry x="430" y="1340" width="140" height="70" as="geometry" />
        </mxCell>
        <mxCell id="sTOlMVgeT1HYII_DFmIz-29" value="Удаление встреч" style="ellipse;whiteSpace=wrap;html=1;" vertex="1" parent="1">
          <mxGeometry x="430" y="1250" width="140" height="70" as="geometry" />
        </mxCell>
        <mxCell id="sTOlMVgeT1HYII_DFmIz-30" value="Добавление встреч" style="ellipse;whiteSpace=wrap;html=1;" vertex="1" parent="1">
          <mxGeometry x="430" y="1120" width="140" height="70" as="geometry" />
        </mxCell>
        <mxCell id="sTOlMVgeT1HYII_DFmIz-31" value="Просмотр календаря на неделю/месяц" style="ellipse;whiteSpace=wrap;html=1;" vertex="1" parent="1">
          <mxGeometry x="430" y="1430" width="140" height="70" as="geometry" />
        </mxCell>
        <mxCell id="sTOlMVgeT1HYII_DFmIz-32" value="&amp;lt;&amp;lt;include&amp;gt;&amp;gt;" style="edgeStyle=none;html=1;endArrow=open;verticalAlign=bottom;dashed=1;labelBackgroundColor=none;rounded=0;exitX=1;exitY=0.5;exitDx=0;exitDy=0;entryX=0;entryY=0.5;entryDx=0;entryDy=0;" edge="1" parent="1" source="sTOlMVgeT1HYII_DFmIz-27" target="sTOlMVgeT1HYII_DFmIz-30">
          <mxGeometry width="160" relative="1" as="geometry">
            <mxPoint x="330" y="1025" as="sourcePoint" />
            <mxPoint x="450" y="1065" as="targetPoint" />
          </mxGeometry>
        </mxCell>
        <mxCell id="sTOlMVgeT1HYII_DFmIz-33" value="&amp;lt;&amp;lt;include&amp;gt;&amp;gt;" style="edgeStyle=none;html=1;endArrow=open;verticalAlign=bottom;dashed=1;labelBackgroundColor=none;rounded=0;exitX=1;exitY=0.5;exitDx=0;exitDy=0;entryX=0;entryY=0.5;entryDx=0;entryDy=0;" edge="1" parent="1" source="sTOlMVgeT1HYII_DFmIz-27" target="sTOlMVgeT1HYII_DFmIz-29">
          <mxGeometry width="160" relative="1" as="geometry">
            <mxPoint x="330" y="1315" as="sourcePoint" />
            <mxPoint x="450" y="1165" as="targetPoint" />
          </mxGeometry>
        </mxCell>
        <mxCell id="sTOlMVgeT1HYII_DFmIz-34" value="&amp;lt;&amp;lt;include&amp;gt;&amp;gt;" style="edgeStyle=none;html=1;endArrow=open;verticalAlign=bottom;dashed=1;labelBackgroundColor=none;rounded=0;exitX=1;exitY=0.5;exitDx=0;exitDy=0;entryX=0;entryY=0.5;entryDx=0;entryDy=0;" edge="1" parent="1" source="sTOlMVgeT1HYII_DFmIz-27" target="sTOlMVgeT1HYII_DFmIz-28">
          <mxGeometry width="160" relative="1" as="geometry">
            <mxPoint x="340" y="1325" as="sourcePoint" />
            <mxPoint x="460" y="1175" as="targetPoint" />
          </mxGeometry>
        </mxCell>
        <mxCell id="sTOlMVgeT1HYII_DFmIz-35" value="&amp;lt;&amp;lt;include&amp;gt;&amp;gt;" style="edgeStyle=none;html=1;endArrow=open;verticalAlign=bottom;dashed=1;labelBackgroundColor=none;rounded=0;exitX=1;exitY=0.5;exitDx=0;exitDy=0;entryX=0;entryY=0.5;entryDx=0;entryDy=0;" edge="1" parent="1" source="sTOlMVgeT1HYII_DFmIz-27" target="sTOlMVgeT1HYII_DFmIz-31">
          <mxGeometry width="160" relative="1" as="geometry">
            <mxPoint x="350" y="1335" as="sourcePoint" />
            <mxPoint x="470" y="1185" as="targetPoint" />
          </mxGeometry>
        </mxCell>
        <mxCell id="sTOlMVgeT1HYII_DFmIz-36" value="Просмотр личных достижений" style="ellipse;whiteSpace=wrap;html=1;" vertex="1" parent="1">
          <mxGeometry x="180" y="1670" width="140" height="70" as="geometry" />
        </mxCell>
        <mxCell id="sTOlMVgeT1HYII_DFmIz-37" value="Просмотр подробной информации о достижениях" style="ellipse;whiteSpace=wrap;html=1;" vertex="1" parent="1">
          <mxGeometry x="430" y="1770" width="140" height="70" as="geometry" />
        </mxCell>
        <mxCell id="sTOlMVgeT1HYII_DFmIz-38" value="Добавление новых достижений" style="ellipse;whiteSpace=wrap;html=1;" vertex="1" parent="1">
          <mxGeometry x="430" y="1680" width="140" height="70" as="geometry" />
        </mxCell>
        <mxCell id="sTOlMVgeT1HYII_DFmIz-39" value="Просмотр списка достижений" style="ellipse;whiteSpace=wrap;html=1;" vertex="1" parent="1">
          <mxGeometry x="430" y="1600" width="140" height="70" as="geometry" />
        </mxCell>
        <mxCell id="sTOlMVgeT1HYII_DFmIz-40" value="&amp;lt;&amp;lt;include&amp;gt;&amp;gt;" style="edgeStyle=none;html=1;endArrow=open;verticalAlign=bottom;dashed=1;labelBackgroundColor=none;rounded=0;exitX=1;exitY=0.5;exitDx=0;exitDy=0;entryX=0;entryY=0.5;entryDx=0;entryDy=0;" edge="1" parent="1" source="sTOlMVgeT1HYII_DFmIz-36" target="sTOlMVgeT1HYII_DFmIz-39">
          <mxGeometry width="160" relative="1" as="geometry">
            <mxPoint x="340" y="1315" as="sourcePoint" />
            <mxPoint x="500" y="1555" as="targetPoint" />
          </mxGeometry>
        </mxCell>
        <mxCell id="sTOlMVgeT1HYII_DFmIz-41" value="&amp;lt;&amp;lt;include&amp;gt;&amp;gt;" style="edgeStyle=none;html=1;endArrow=open;verticalAlign=bottom;dashed=1;labelBackgroundColor=none;rounded=0;exitX=1;exitY=0.5;exitDx=0;exitDy=0;entryX=0;entryY=0.5;entryDx=0;entryDy=0;" edge="1" parent="1" source="sTOlMVgeT1HYII_DFmIz-36" target="sTOlMVgeT1HYII_DFmIz-37">
          <mxGeometry width="160" relative="1" as="geometry">
            <mxPoint x="330" y="1645" as="sourcePoint" />
            <mxPoint x="450" y="1645" as="targetPoint" />
          </mxGeometry>
        </mxCell>
        <mxCell id="sTOlMVgeT1HYII_DFmIz-42" value="&amp;lt;&amp;lt;include&amp;gt;&amp;gt;" style="edgeStyle=none;html=1;endArrow=open;verticalAlign=bottom;dashed=1;labelBackgroundColor=none;rounded=0;exitX=1;exitY=0.5;exitDx=0;exitDy=0;entryX=0;entryY=0.5;entryDx=0;entryDy=0;" edge="1" parent="1" source="sTOlMVgeT1HYII_DFmIz-36" target="sTOlMVgeT1HYII_DFmIz-38">
          <mxGeometry width="160" relative="1" as="geometry">
            <mxPoint x="340" y="1655" as="sourcePoint" />
            <mxPoint x="460" y="1655" as="targetPoint" />
          </mxGeometry>
        </mxCell>
        <mxCell id="sTOlMVgeT1HYII_DFmIz-43" value="" style="edgeStyle=none;html=1;endArrow=block;endFill=0;endSize=12;verticalAlign=bottom;rounded=0;" edge="1" parent="1">
          <mxGeometry width="160" relative="1" as="geometry">
            <mxPoint x="65" y="580" as="sourcePoint" />
            <mxPoint x="65" y="340" as="targetPoint" />
          </mxGeometry>
        </mxCell>
        <mxCell id="sTOlMVgeT1HYII_DFmIz-44" value="Просмотр профилей подчиненных" style="ellipse;whiteSpace=wrap;html=1;" vertex="1" parent="1">
          <mxGeometry x="430" y="390" width="140" height="70" as="geometry" />
        </mxCell>
        <mxCell id="sTOlMVgeT1HYII_DFmIz-45" value="&amp;lt;&amp;lt;extend&amp;gt;&amp;gt;" style="edgeStyle=none;html=1;startArrow=open;endArrow=none;startSize=12;verticalAlign=bottom;dashed=1;labelBackgroundColor=none;rounded=0;entryX=0;entryY=0.5;entryDx=0;entryDy=0;exitX=1;exitY=0.5;exitDx=0;exitDy=0;" edge="1" parent="1" source="sTOlMVgeT1HYII_DFmIz-3" target="sTOlMVgeT1HYII_DFmIz-44">
          <mxGeometry width="160" relative="1" as="geometry">
            <mxPoint x="330" y="630" as="sourcePoint" />
            <mxPoint x="490" y="630" as="targetPoint" />
          </mxGeometry>
        </mxCell>
        <mxCell id="sTOlMVgeT1HYII_DFmIz-46" value="Просмотр профилей подчиненных" style="ellipse;whiteSpace=wrap;html=1;" vertex="1" parent="1">
          <mxGeometry x="680" y="440" width="140" height="70" as="geometry" />
        </mxCell>
        <mxCell id="sTOlMVgeT1HYII_DFmIz-47" value="Просмотр профилей подчиненных" style="ellipse;whiteSpace=wrap;html=1;" vertex="1" parent="1">
          <mxGeometry x="680" y="350" width="140" height="70" as="geometry" />
        </mxCell>
        <mxCell id="sTOlMVgeT1HYII_DFmIz-48" value="&amp;lt;&amp;lt;include&amp;gt;&amp;gt;" style="edgeStyle=none;html=1;endArrow=open;verticalAlign=bottom;dashed=1;labelBackgroundColor=none;rounded=0;exitX=1;exitY=0.5;exitDx=0;exitDy=0;entryX=0;entryY=0.5;entryDx=0;entryDy=0;" edge="1" parent="1" source="sTOlMVgeT1HYII_DFmIz-44" target="sTOlMVgeT1HYII_DFmIz-47">
          <mxGeometry x="-0.0069" width="160" relative="1" as="geometry">
            <mxPoint x="330" y="305" as="sourcePoint" />
            <mxPoint x="440" y="255" as="targetPoint" />
            <mxPoint as="offset" />
          </mxGeometry>
        </mxCell>
        <mxCell id="sTOlMVgeT1HYII_DFmIz-49" value="&amp;lt;&amp;lt;include&amp;gt;&amp;gt;" style="edgeStyle=none;html=1;endArrow=open;verticalAlign=bottom;dashed=1;labelBackgroundColor=none;rounded=0;exitX=1;exitY=0.5;exitDx=0;exitDy=0;entryX=0;entryY=0.5;entryDx=0;entryDy=0;" edge="1" parent="1" source="sTOlMVgeT1HYII_DFmIz-44" target="sTOlMVgeT1HYII_DFmIz-46">
          <mxGeometry x="-0.0069" width="160" relative="1" as="geometry">
            <mxPoint x="580" y="335" as="sourcePoint" />
            <mxPoint x="680" y="285" as="targetPoint" />
            <mxPoint as="offset" />
          </mxGeometry>
        </mxCell>
        <mxCell id="sTOlMVgeT1HYII_DFmIz-50" value="Управление задачами команды" style="ellipse;whiteSpace=wrap;html=1;" vertex="1" parent="1">
          <mxGeometry x="430" y="920" width="140" height="70" as="geometry" />
        </mxCell>
        <mxCell id="sTOlMVgeT1HYII_DFmIz-51" value="&lt;strong&gt;Просмотр отчетов по задачам&lt;/strong&gt;" style="ellipse;whiteSpace=wrap;html=1;" vertex="1" parent="1">
          <mxGeometry x="430" y="1010" width="140" height="70" as="geometry" />
        </mxCell>
        <mxCell id="sTOlMVgeT1HYII_DFmIz-52" value="&amp;lt;&amp;lt;extend&amp;gt;&amp;gt;" style="edgeStyle=none;html=1;startArrow=open;endArrow=none;startSize=12;verticalAlign=bottom;dashed=1;labelBackgroundColor=none;rounded=0;exitX=1;exitY=0.5;exitDx=0;exitDy=0;entryX=0;entryY=0.5;entryDx=0;entryDy=0;" edge="1" parent="1" source="sTOlMVgeT1HYII_DFmIz-22" target="sTOlMVgeT1HYII_DFmIz-50">
          <mxGeometry width="160" relative="1" as="geometry">
            <mxPoint x="530" y="1130" as="sourcePoint" />
            <mxPoint x="690" y="1130" as="targetPoint" />
          </mxGeometry>
        </mxCell>
        <mxCell id="sTOlMVgeT1HYII_DFmIz-53" value="&amp;lt;&amp;lt;extend&amp;gt;&amp;gt;" style="edgeStyle=none;html=1;startArrow=open;endArrow=none;startSize=12;verticalAlign=bottom;dashed=1;labelBackgroundColor=none;rounded=0;exitX=1;exitY=0.5;exitDx=0;exitDy=0;entryX=0;entryY=0.5;entryDx=0;entryDy=0;" edge="1" parent="1" source="sTOlMVgeT1HYII_DFmIz-22" target="sTOlMVgeT1HYII_DFmIz-51">
          <mxGeometry width="160" relative="1" as="geometry">
            <mxPoint x="310" y="875" as="sourcePoint" />
            <mxPoint x="440" y="965" as="targetPoint" />
          </mxGeometry>
        </mxCell>
        <mxCell id="sTOlMVgeT1HYII_DFmIz-54" value="Назначение задач сотрудникам" style="ellipse;whiteSpace=wrap;html=1;" vertex="1" parent="1">
          <mxGeometry x="680" y="850" width="140" height="70" as="geometry" />
        </mxCell>
        <mxCell id="sTOlMVgeT1HYII_DFmIz-55" value="Изменение приоритетов задач" style="ellipse;whiteSpace=wrap;html=1;" vertex="1" parent="1">
          <mxGeometry x="680" y="960" width="140" height="70" as="geometry" />
        </mxCell>
        <mxCell id="sTOlMVgeT1HYII_DFmIz-57" value="&amp;lt;&amp;lt;include&amp;gt;&amp;gt;" style="edgeStyle=none;html=1;endArrow=open;verticalAlign=bottom;dashed=1;labelBackgroundColor=none;rounded=0;exitX=1;exitY=0.5;exitDx=0;exitDy=0;entryX=0;entryY=0.5;entryDx=0;entryDy=0;" edge="1" parent="1" source="sTOlMVgeT1HYII_DFmIz-50" target="sTOlMVgeT1HYII_DFmIz-54">
          <mxGeometry width="160" relative="1" as="geometry">
            <mxPoint x="310" y="875" as="sourcePoint" />
            <mxPoint x="440" y="875" as="targetPoint" />
          </mxGeometry>
        </mxCell>
        <mxCell id="sTOlMVgeT1HYII_DFmIz-58" value="&amp;lt;&amp;lt;include&amp;gt;&amp;gt;" style="edgeStyle=none;html=1;endArrow=open;verticalAlign=bottom;dashed=1;labelBackgroundColor=none;rounded=0;exitX=1;exitY=0.5;exitDx=0;exitDy=0;entryX=0;entryY=0.5;entryDx=0;entryDy=0;" edge="1" parent="1" source="sTOlMVgeT1HYII_DFmIz-50" target="sTOlMVgeT1HYII_DFmIz-55">
          <mxGeometry width="160" relative="1" as="geometry">
            <mxPoint x="320" y="885" as="sourcePoint" />
            <mxPoint x="450" y="885" as="targetPoint" />
          </mxGeometry>
        </mxCell>
        <mxCell id="sTOlMVgeT1HYII_DFmIz-59" value="Генерация отчетов по статусу задач" style="ellipse;whiteSpace=wrap;html=1;" vertex="1" parent="1">
          <mxGeometry x="700" y="1040" width="140" height="70" as="geometry" />
        </mxCell>
        <mxCell id="sTOlMVgeT1HYII_DFmIz-60" value="Формирование отчета в Excel" style="ellipse;whiteSpace=wrap;html=1;" vertex="1" parent="1">
          <mxGeometry x="980" y="1130" width="140" height="70" as="geometry" />
        </mxCell>
        <mxCell id="sTOlMVgeT1HYII_DFmIz-61" value="&amp;lt;&amp;lt;include&amp;gt;&amp;gt;" style="edgeStyle=none;html=1;endArrow=open;verticalAlign=bottom;dashed=1;labelBackgroundColor=none;rounded=0;exitX=1;exitY=0.5;exitDx=0;exitDy=0;entryX=0;entryY=0.5;entryDx=0;entryDy=0;" edge="1" parent="1" source="sTOlMVgeT1HYII_DFmIz-51" target="sTOlMVgeT1HYII_DFmIz-59">
          <mxGeometry width="160" relative="1" as="geometry">
            <mxPoint x="580" y="965" as="sourcePoint" />
            <mxPoint x="690" y="1005" as="targetPoint" />
          </mxGeometry>
        </mxCell>
        <mxCell id="sTOlMVgeT1HYII_DFmIz-62" value="&amp;lt;&amp;lt;extend&amp;gt;&amp;gt;" style="edgeStyle=none;html=1;startArrow=open;endArrow=none;startSize=12;verticalAlign=bottom;dashed=1;labelBackgroundColor=none;rounded=0;exitX=1;exitY=0.5;exitDx=0;exitDy=0;entryX=0;entryY=0.5;entryDx=0;entryDy=0;" edge="1" parent="1" source="sTOlMVgeT1HYII_DFmIz-59" target="sTOlMVgeT1HYII_DFmIz-60">
          <mxGeometry width="160" relative="1" as="geometry">
            <mxPoint x="310" y="875" as="sourcePoint" />
            <mxPoint x="440" y="965" as="targetPoint" />
          </mxGeometry>
        </mxCell>
        <mxCell id="sTOlMVgeT1HYII_DFmIz-63" value="Формирование отчёта на ui" style="ellipse;whiteSpace=wrap;html=1;" vertex="1" parent="1">
          <mxGeometry x="980" y="1000" width="140" height="70" as="geometry" />
        </mxCell>
        <mxCell id="sTOlMVgeT1HYII_DFmIz-64" value="&amp;lt;&amp;lt;extend&amp;gt;&amp;gt;" style="edgeStyle=none;html=1;startArrow=open;endArrow=none;startSize=12;verticalAlign=bottom;dashed=1;labelBackgroundColor=none;rounded=0;exitX=1;exitY=0.5;exitDx=0;exitDy=0;entryX=0;entryY=0.5;entryDx=0;entryDy=0;" edge="1" parent="1" source="sTOlMVgeT1HYII_DFmIz-59" target="sTOlMVgeT1HYII_DFmIz-63">
          <mxGeometry width="160" relative="1" as="geometry">
            <mxPoint x="850" y="1085" as="sourcePoint" />
            <mxPoint x="990" y="1175" as="targetPoint" />
          </mxGeometry>
        </mxCell>
        <mxCell id="sTOlMVgeT1HYII_DFmIz-65" value="Просмотр календаря на неделю/месяц" style="ellipse;whiteSpace=wrap;html=1;" vertex="1" parent="1">
          <mxGeometry x="430" y="1520" width="140" height="70" as="geometry" />
        </mxCell>
        <mxCell id="sTOlMVgeT1HYII_DFmIz-66" value="&amp;lt;&amp;lt;extend&amp;gt;&amp;gt;" style="edgeStyle=none;html=1;startArrow=open;endArrow=none;startSize=12;verticalAlign=bottom;dashed=1;labelBackgroundColor=none;rounded=0;exitX=1;exitY=0.5;exitDx=0;exitDy=0;entryX=0;entryY=0.5;entryDx=0;entryDy=0;" edge="1" parent="1" source="sTOlMVgeT1HYII_DFmIz-27" target="sTOlMVgeT1HYII_DFmIz-65">
          <mxGeometry width="160" relative="1" as="geometry">
            <mxPoint x="310" y="875" as="sourcePoint" />
            <mxPoint x="440" y="1055" as="targetPoint" />
          </mxGeometry>
        </mxCell>
        <mxCell id="sTOlMVgeT1HYII_DFmIz-67" value="Просмотр календарей подчиненных" style="ellipse;whiteSpace=wrap;html=1;" vertex="1" parent="1">
          <mxGeometry x="700" y="1480" width="140" height="70" as="geometry" />
        </mxCell>
        <mxCell id="sTOlMVgeT1HYII_DFmIz-68" value="Редактирование календарей" style="ellipse;whiteSpace=wrap;html=1;" vertex="1" parent="1">
          <mxGeometry x="700" y="1570" width="140" height="70" as="geometry" />
        </mxCell>
        <mxCell id="sTOlMVgeT1HYII_DFmIz-69" value="&amp;lt;&amp;lt;include&amp;gt;&amp;gt;" style="edgeStyle=none;html=1;endArrow=open;verticalAlign=bottom;dashed=1;labelBackgroundColor=none;rounded=0;exitX=1;exitY=0.5;exitDx=0;exitDy=0;entryX=0;entryY=0.5;entryDx=0;entryDy=0;" edge="1" parent="1" source="sTOlMVgeT1HYII_DFmIz-65" target="sTOlMVgeT1HYII_DFmIz-67">
          <mxGeometry width="160" relative="1" as="geometry">
            <mxPoint x="580" y="1055" as="sourcePoint" />
            <mxPoint x="710" y="1085" as="targetPoint" />
          </mxGeometry>
        </mxCell>
        <mxCell id="sTOlMVgeT1HYII_DFmIz-70" value="&amp;lt;&amp;lt;include&amp;gt;&amp;gt;" style="edgeStyle=none;html=1;endArrow=open;verticalAlign=bottom;dashed=1;labelBackgroundColor=none;rounded=0;exitX=1;exitY=0.5;exitDx=0;exitDy=0;entryX=0;entryY=0.5;entryDx=0;entryDy=0;" edge="1" parent="1" source="sTOlMVgeT1HYII_DFmIz-65" target="sTOlMVgeT1HYII_DFmIz-68">
          <mxGeometry width="160" relative="1" as="geometry">
            <mxPoint x="580" y="1565" as="sourcePoint" />
            <mxPoint x="710" y="1525" as="targetPoint" />
          </mxGeometry>
        </mxCell>
      </root>
    </mxGraphModel>
  </diagram>
</mxfile>
